<svg version="1.2" xmlns="http://www.w3.org/2000/svg" viewBox="5 0 395 123" width="450" height="138">
	<style>
		.s0 { fill: #006054; stroke: #006054; stroke-width: 2.5; stroke-linejoin: round; } 
	</style>
	<path id="দেখা হোক" class="s0" aria-label="দেখা হোক"  d="m72.1 105.3l3 3.6q-7.7 4.3-17.3 4.3-8.8 0-16.6-3.6-7.8-3.6-13.7-9.9-5.9-6.2-9.3-14.3-3.2-8.1-3.2-17.1 0-6.9 1.7-13.4 1.8-6.7 4.7-12.3 2.9-5.7 7.7-10.2 4.7-4.6 10.6-7.7h2.3v4.6h-0.9q-4.8 2.6-9.1 6.7-4.2 4.1-6.6 9.2-2.5 4.9-4.1 10.8-1.6 5.8-1.6 12 0 8.6 3.1 15.9 3.1 7.4 8.3 12.9 5.3 5.4 12.2 8.6 7 3 14.9 3 7.3 0 13.9-3.1zm18.4-13.8q-4.2 0-7.7-1.8-3.4-1.9-5.8-4.8-2.3-2.8-3.7-6.3-1.2-3.5-1.2-6.8 0-4.3 1.9-8 1.9-3.8 4.7-6.8 2.9-3 6-5.3 3.3-2.2 6-3.6l-5-4.9q-8.8 8.4-17.1 16.4-8.4 8.1-17.1 16.4l-3.9 3.7v-50.4h-7.7v-4.6h63.7v4.6h-51.4v39.7l9.1-8.9q11.2-10.8 23-21.7l1.6-1.5 12.7 12.6-3 1.3q-2.1 0.9-5.3 2.7-3.2 1.8-6.2 4.5-3.1 2.8-5.2 6.3-2.2 3.5-2.2 7.6 0 2.5 0.9 5.2 1 2.6 2.8 4.8 2 2.1 4.4 3.6 2.6 1.4 5.8 1.4 1.6 0 3.3-0.6 1.8-0.6 3.1-1.5 1.5-1 2.4-2.5 0.9-1.4 0.9-3.1 0-3.1-2.3-5.2-2.3-2.2-5-2.2-2.6 0-4.3 1.7 1-0.2 1.8-0.2 2.4 0 3.9 1.7 1.7 1.6 1.7 4 0 2.3-1.7 4-1.5 1.7-3.9 1.7-3.2 0-5.3-2.4-2.1-2.4-2.1-5.8 0-4.6 3-6.9 3-2.4 6.7-2.4 2.3 0 4.5 0.9 2.2 0.9 3.8 2.5 1.7 1.6 2.7 3.8 1.2 2.3 1.2 4.9 0 2.9-1.4 5.2-1.4 2.3-3.6 3.8-2.2 1.6-4.8 2.4-2.4 0.8-4.7 0.8zm29-43.6q-2 0-4.4-0.8-2.3-0.8-4.4-2.4-2-1.7-3.4-4.1-1.3-2.4-1.3-5.6 0-2 0.6-4 0.8-2 2.2-3.6 1.3-1.7 3.3-2.7 2-1 4.5-1 1.9 0 3.6 0.7 1.7 0.7 3 1.9 1.4 1.1 2.2 2.8 0.8 1.6 0.8 3.6 0 3.3-2.3 5.7-2.2 2.4-5.4 2.4-2.6 0-4.7-1.7-2.1-1.7-2.1-4.4 0-1.8 1.4-3.3 1.4-1.5 3.4-1.5 1.8 0 3.1 1.5 1.4 1.3 1.6 3l0.1-0.2q0.4-0.8 0.4-1.3 0-1.5-1.4-3.1-1.2-1.6-3.4-1.6-2.9 0-4.6 2.3-1.7 2.1-1.7 4.4 0 1.9 0.8 3.5 0.9 1.5 2.1 2.6 1.3 1.1 2.9 1.7 1.5 0.5 3.1 0.5 4.6 0 7.4-3.1 2.8-3.2 3.4-7-0.5-0.9-0.5-1.2l3.5-2.8q0.1 0.2 0.9 1.5 0.8 1.1 1.7 3.2 0.9 1.9 1.6 4.6 0.7 2.6 0.7 5.6 0 13.8-16.5 22.9l29.5 17.5v-59.7h9.6v4.6h-5.1v63.1l-43.9-26 4-1.8q18-8.4 18-20.7 0-1.3-0.2-1.9l-0.5-2.7q-1.7 3.3-5.6 6-3.7 2.6-8 2.6zm39.5-18.6h-0.1v-4.6h2.2q4.4 0 6.8 4v-7.6h4.6v3.6h5.1v4.6h-5.1v65.7h-4.6v-52q-0.1-6-3-9.8-2.9-3.9-5.9-3.9zm101.1 76l3 3.6q-7.7 4.3-17.3 4.3-8.8 0-16.6-3.6-7.8-3.6-13.7-9.9-5.9-6.2-9.3-14.3-3.2-8.1-3.2-17.1 0-6.9 1.7-13.4 1.8-6.7 4.7-12.3 2.9-5.7 7.7-10.2 4.7-4.6 10.6-7.7h2.3v4.6h-0.9q-4.8 2.6-9.1 6.7-4.2 4.1-6.6 9.2-2.5 4.9-4.1 10.8-1.6 5.8-1.6 12 0 8.6 3.1 15.9 3.1 7.4 8.3 12.9 5.3 5.4 12.2 8.6 7 3 14.9 3 7.3 0 13.9-3.1zm9.6-55.3q0 3.2-2.3 5.5-2.2 2.1-5.4 2.1-3.2 0-5.4-2.1-2.3-2.3-2.3-5.5 0-2.1 0.9-3.7 1-1.7 2.5-2.8 1.5-1.2 3.2-1.6 1.8-0.6 3.2-0.6 2.5 0 4.6 1.2 2.1 1 3.6 2.8 1.6 1.8 2.4 3.9 0.9 2.2 0.9 4.4 0 3-1.3 5.5-1.2 2.5-3.4 4.4-2 1.8-4.7 2.8-2.6 1-5.3 1-3.9 0-6.9-1.6-3-1.7-5.2-4.1-2.2-2.6-3.4-5.8-1.1-3.3-1.1-6.3 0-3.9 1.5-7.3 1.6-3.4 4.2-6.1 2.7-2.7 6.1-4.5 3.4-1.8 7.3-2.3h-35.5v-4.6h65.8v4.6h-24.9q4.8 0.6 8.9 3.2 4.1 2.5 6.9 6.2 2.9 3.6 4.5 8.2 1.6 4.5 1.6 9.1 0 6.6-2.8 12.1-2.9 5.5-7.5 9.6-4.6 4-10.6 6.2-5.9 2.3-12 2.3-4.4 0-8.2-0.9l1.5 1q13.2 8.8 28 8.8 5.2 0 10.7-1.1l0.9 4.4q-5.8 1.2-11.5 1.2-7.9 0-15.7-2.2-7.8-2.4-15.2-7.4-3.6-2.5-6.4-4.9-2.8-2.6-4.9-4.6-1.9-2-2.9-3.2-1-1.3-1.1-1.5l3.5-3.1q9.2 8.9 21.3 8.9 5.2 0 10.2-1.9 5.1-1.8 9-5.2 4.1-3.3 6.6-8 2.6-4.7 2.6-10.5 0-4.1-1.5-8-1.5-4.1-4.2-7.2-2.6-3.2-6.3-5.1-3.6-1.9-8-1.9-3.2 0-6.4 1.2-3 1.1-5.5 3.3-2.4 2.1-3.9 4.9-1.5 2.9-1.5 6.1 0 2.1 0.8 4.5 0.8 2.3 2.2 4.4 1.6 1.9 3.8 3.2 2.2 1.4 5.2 1.4 1.8 0 3.6-0.7 1.9-0.8 3.3-1.9 1.4-1.2 2.3-2.8 1-1.7 1-3.8 0-2.3-1.5-4.6 0.1 0.3 0.1 1zm21.3-20.7h-0.1v-4.6h2.2q4.4 0 6.8 4v-7.6h4.6v3.6h5.1v4.6h-5.1v65.7h-4.6v-52q-0.1-6-3-9.8-2.9-3.9-5.9-3.9zm64.4 65.7l-42.4-35 37.4-30.7h-42.5v-4.6h79.6v4.6h-32.1v16.1q2.3-2.7 5.9-4.5 3.6-1.9 7.6-1.9 2.8 0 5.5 1 2.7 1 5 2.9 2.3 1.9 3.6 4.6 1.5 2.8 1.5 6.1 0 2.4-1 4.8-0.9 2.2-2.5 4.2-1.6 1.9-3.9 3-2.1 1.1-4.9 1.1-2 0-4-0.7-1.9-0.8-3.5-2.2-1.6-1.5-2.5-3.3-0.9-1.9-0.9-4 0-3.6 2.5-6.4 2.5-2.8 6.1-2.8 3.4 0 5.7 2.4l0.3 0.3q0.8 0.8 1.1 1.7v0.1q0.6 0.9 0.6 2.2 0 2.2-1.7 3.9-1.6 1.7-4 1.7-2 0-3.7-1.3-1.7-1.5-1.9-3.9-0.5 1-0.5 1.8 0 2.8 2.1 4.3 2 1.6 4.4 1.6 3 0 5.3-2.5 2.4-2.6 2.4-5.6 0-2.4-1.2-4.3-1-2-2.7-3.4-1.6-1.4-3.6-2-1.9-0.8-3.7-0.8-3 0-5.2 1.2-2.3 1.1-4.1 3.1-1.7 1.8-2.7 4.3-1 2.3-1.4 4.7zm-35.2-35l30.6 25.3v-50.6z"/>
</svg>